<?xml version="1.0" encoding="utf-8"?>
<!-- Generator: Adobe Illustrator 21.1.0, SVG Export Plug-In . SVG Version: 6.00 Build 0)  -->
<svg version="1.1" id="Layer_1" xmlns="http://www.w3.org/2000/svg" xmlns:xlink="http://www.w3.org/1999/xlink" x="0px" y="0px"
	 viewBox="0 0 392 80.7" style="enable-background:new 0 0 392 80.7;" xml:space="preserve">
<style type="text/css">
	.st0{fill:#f44747;stroke:#f44747;stroke-miterlimit:10;}
	.st1{fill:#f44747;stroke:#f44747;stroke-width:1.5;stroke-miterlimit:10;}
</style>
<title>hacktivate-logo</title>
<path class="st0" d="M1.6,48.4c0.5,2.6,1.3,5.1,2.3,7.5s2.2,4.6,3.7,6.7c1.4,2.1,3,4.1,4.9,5.8c1.8,1.8,3.8,3.5,5.9,4.8
	c2.1,1.4,4.4,2.7,6.8,3.7s4.9,1.8,7.5,2.3c5.3,1.1,10.8,1.1,16,0c2.6-0.5,5.1-1.3,7.5-2.3s4.6-2.2,6.7-3.7c1-0.6,1.3-1.9,0.7-2.9
	l-0.1-0.1c-0.7-1-2-1.3-3-0.6c-1.9,1.3-3.9,2.4-6.1,3.2c-2.1,0.9-4.4,1.6-6.7,2c-4.7,0.9-9.6,0.9-14.3,0c-2.3-0.5-4.5-1.2-6.7-2
	c-2.1-0.9-4.1-2-6.1-3.2c-3.8-2.6-7-5.8-9.6-9.6c-1.3-1.9-2.4-3.9-3.2-6.1c-0.9-2.1-1.6-4.4-2-6.7c-0.5-2.4-0.7-4.8-0.7-7.2
	s0.2-4.8,0.7-7.2c0.5-2.3,1.2-4.5,2-6.6c0.9-2.1,2-4.1,3.2-6.1c0.7-0.9,0.5-2.2-0.5-2.9l-0.1-0.1c-0.3-0.2-0.8-0.4-1.2-0.3
	c-0.7,0-1.4,0.4-1.8,0.9c-1.4,2.1-2.7,4.4-3.7,6.7c-1,2.4-1.8,5-2.3,7.6C0.5,37.5,0.5,43,1.6,48.4L1.6,48.4z"/>
<path class="st0" d="M40.6,4.9c2.4,0,4.8,0.3,7.2,0.7c2.3,0.5,4.5,1.2,6.7,2c2.1,0.9,4.1,2,6.1,3.2c3.8,2.6,7,5.8,9.6,9.6
	c1.3,1.9,2.4,3.9,3.2,6.1c0.9,2.1,1.6,4.4,2,6.7c0.5,2.4,0.7,4.8,0.7,7.2s-0.2,4.8-0.7,7.2c-0.5,2.3-1.2,4.5-2,6.7
	c-0.9,2.1-2,4.1-3.2,6.1c-0.7,0.9-0.5,2.2,0.5,2.9l0.1,0.1c0.9,0.7,2.2,0.5,2.9-0.5l0.1-0.1c1.5-2.1,2.7-4.4,3.7-6.7
	c1-2.4,1.8-4.9,2.3-7.5s0.8-5.3,0.8-8s-0.3-5.4-0.8-8c-0.5-2.6-1.3-5.1-2.3-7.5s-2.2-4.6-3.7-6.7c-1.4-2.1-3-4.1-4.8-5.8
	c-1.8-1.8-3.8-3.5-5.9-4.9C61,6.1,58.7,4.9,56.4,4c-2.4-1-5-1.8-7.6-2.4c-2.6-0.5-5.3-0.8-8-0.8s-5.4,0.3-8,0.8
	c-2.6,0.5-5.1,1.3-7.5,2.3S20.7,6,18.6,7.5c-1,0.6-1.3,1.9-0.7,2.9l0.1,0.1c0.3,0.5,0.8,0.8,1.4,0.9c0.6,0.1,1.1,0,1.6-0.4l0,0
	c1.9-1.3,3.9-2.4,6-3.2c2.1-0.9,4.4-1.6,6.7-2C35.8,5.1,38.2,4.9,40.6,4.9z"/>
<path class="st0" d="M28.6,28.1c-0.6,0-1.1,0.2-1.5,0.6l-10,10c-0.8,0.8-0.9,2.2,0,3l0,0l10,10c0.9,0.8,2.2,0.8,3.1,0
	c0.8-0.8,0.9-2.2,0-3l0,0l-8.5-8.5l8.5-8.5c0.8-0.9,0.8-2.2,0-3.1C29.7,28.3,29.2,28.1,28.6,28.1z"/>
<path class="st0" d="M52.7,28.2c-1.2,0-2.2,1-2.2,2.2c0,0.6,0.2,1.1,0.6,1.5l8.5,8.5l-8.5,8.5c-0.8,0.8-0.8,2.2,0,3.1l0,0
	c0.4,0.4,1,0.6,1.5,0.6c0.6,0,1.1-0.2,1.5-0.6l10-10c0.8-0.8,0.8-2.2,0-3.1l0,0l-10-10C53.9,28.5,53.3,28.2,52.7,28.2z"/>
<path class="st0" d="M40.5,21.3c-1.2,0-2.1,0.9-2.1,2.1c0,0,0,0,0,0.1v14.9c0.1,1.2,1.1,2.1,2.3,2c1.1-0.1,1.9-0.9,2-2v-15
	C42.7,22.3,41.8,21.3,40.5,21.3C40.6,21.3,40.6,21.3,40.5,21.3z"/>
<path class="st1" d="M123.3,22.7c-0.3,0.3-0.5,0.7-0.5,1.2v13.3H104V23.9c0-0.5-0.2-0.9-0.5-1.2c-0.7-0.6-1.8-0.6-2.5,0
	c-0.3,0.3-0.5,0.7-0.5,1.2v32.8c0,0.5,0.2,0.9,0.5,1.2c0.7,0.6,1.8,0.6,2.5,0c0.3-0.3,0.5-0.7,0.5-1.2v-16h18.8v16
	c0,0.9,0.8,1.7,1.7,1.7c0.9,0,1.7-0.8,1.7-1.7V23.9c0-0.5-0.2-0.9-0.5-1.2C125.1,22.1,124.1,22,123.3,22.7
	C123.4,22.7,123.4,22.7,123.3,22.7z"/>
<path class="st1" d="M163.2,57.3c0.2,0.7,0.9,1.1,1.6,1.1c0.2,0,0.5,0,0.7-0.1c0.4-0.2,0.7-0.6,0.9-1s0.2-0.9,0-1.3l-4.2-9.9l0,0
	l-9.7-22.9c-0.3-0.7-0.9-1.1-1.6-1.1c-0.7,0-1.4,0.4-1.6,1.1L135.4,56c-0.2,0.4-0.2,0.9,0,1.3c0.2,0.4,0.5,0.8,0.9,1
	c0.2,0.1,0.5,0.1,0.7,0.1s0.5,0,0.7-0.1c0.4-0.1,0.8-0.5,0.9-0.9l12.4-29L163.2,57.3z"/>
<path class="st1" d="M189.6,25.6c3.9-0.1,7.7,1.5,10.4,4.3c0.7,0.7,1.8,0.6,2.5-0.1c0.6-0.7,0.6-1.7,0-2.4c-3.4-3.4-8-5.3-12.8-5.3
	c-10,0-18.1,8.1-18.1,18.1l0,0c0,10,8.1,18.1,18.1,18.1l0,0c4.8,0,9.4-1.9,12.8-5.3c0.7-0.7,0.6-1.8-0.1-2.5c-0.7-0.6-1.7-0.6-2.4,0
	c-5.7,5.7-15,5.7-20.7,0c-2.7-2.8-4.3-6.5-4.3-10.4c-0.1-3.9,1.5-7.6,4.3-10.3S185.8,25.5,189.6,25.6z"/>
<path class="st1" d="M227,24.2c0-0.5-0.2-0.9-0.5-1.2c-0.6-0.7-1.7-0.7-2.4-0.1L208,38.3c-0.6,0.5-1,1.2-1.1,2
	c0.1,0.8,0.5,1.5,1.1,2.1l16.1,15.4c0.3,0.3,0.8,0.5,1.2,0.5c0.5,0,0.9-0.2,1.3-0.5c0.3-0.3,0.5-0.8,0.5-1.2c0-0.5-0.2-0.9-0.5-1.2
	l-15.6-15l15.6-15C226.9,25.1,227.1,24.7,227,24.2z"/>
<path class="st1" d="M255.9,22.2h-19.1c-0.9,0-1.7,0.8-1.7,1.7c0,0.4,0.2,0.9,0.5,1.2c0.3,0.4,0.7,0.5,1.2,0.5h7.8v31
	c0,0.5,0.2,0.9,0.5,1.2c0.4,0.3,0.8,0.5,1.3,0.5c0.9,0,1.7-0.8,1.7-1.7v-31h7.8c0.5,0,0.9-0.2,1.2-0.5c0.3-0.3,0.5-0.8,0.5-1.2
	c0-0.5-0.2-0.9-0.5-1.2C256.8,22.4,256.4,22.2,255.9,22.2z"/>
<path class="st1" d="M267,22.7c-0.3,0.3-0.5,0.7-0.5,1.2v32.8c0,0.9,0.8,1.7,1.7,1.7c0.5,0,0.9-0.2,1.3-0.5c0.3-0.3,0.5-0.7,0.5-1.2
	V23.9c0-0.5-0.2-0.9-0.5-1.2C268.9,22,267.7,22,267,22.7C267.1,22.7,267,22.7,267,22.7z"/>
<path class="st1" d="M307,22.2c-0.7,0-1.4,0.4-1.6,1.1l-11.6,28.8l-11.6-28.8c-0.3-0.7-0.9-1.1-1.6-1.1c-0.9,0-1.7,0.8-1.7,1.7
	c0,0.2,0,0.5,0.1,0.7l13.2,32.8c0.3,0.9,1.3,1.3,2.2,1c0.5-0.2,0.8-0.5,1-1l13.2-32.7c0.1-0.2,0.2-0.5,0.2-0.7
	c0-0.5-0.2-0.9-0.5-1.2C308,22.4,307.5,22.2,307,22.2z"/>
<path class="st1" d="M336.9,57.3c0.2,0.7,0.9,1.1,1.6,1.1c0.2,0,0.5,0,0.7-0.1c0.4-0.2,0.7-0.6,0.9-1c0.2-0.4,0.2-0.9,0-1.3
	l-4.2-9.9l0,0l-9.7-22.9c-0.3-0.7-0.9-1.1-1.6-1.1s-1.4,0.4-1.6,1.1L309.1,56c-0.2,0.4-0.2,0.9,0,1.3c0.2,0.4,0.5,0.8,0.9,1
	c0.2,0.1,0.5,0.1,0.7,0.1s0.5,0,0.7-0.1c0.4-0.1,0.8-0.5,0.9-0.9l12.4-29L336.9,57.3z"/>
<path class="st1" d="M361.2,22.2h-19.1c-0.9,0-1.7,0.8-1.7,1.7c0,0.4,0.2,0.9,0.5,1.2c0.3,0.4,0.7,0.5,1.2,0.5h7.8v31
	c0,0.5,0.2,0.9,0.5,1.2c0.4,0.3,0.8,0.5,1.3,0.5c0.9,0,1.7-0.8,1.7-1.7v-31h7.8c0.5,0,0.9-0.2,1.2-0.5c0.3-0.3,0.5-0.8,0.5-1.2
	c0-0.5-0.2-0.9-0.5-1.2C362.1,22.3,361.7,22.2,361.2,22.2z"/>
<path class="st1" d="M389.5,54.9h-15.2V41.8h12c0.9,0,1.7-0.8,1.7-1.7s-0.8-1.7-1.7-1.7h-12V25.5h15.2c0.5,0,0.9-0.2,1.2-0.5
	c0.3-0.3,0.5-0.8,0.5-1.2c0-0.5-0.2-0.9-0.5-1.2c-0.3-0.3-0.8-0.5-1.2-0.5h-17c-0.9,0-1.7,0.8-1.7,1.7v33c0,0.9,0.8,1.7,1.7,1.7h17
	c0.5,0,0.9-0.2,1.2-0.5c0.4-0.3,0.5-0.7,0.5-1.2s-0.2-0.9-0.5-1.3C390.5,55.1,390,54.9,389.5,54.9z"/>
</svg>
