<?xml version="1.0" encoding="utf-8"?>
<!-- Generator: Adobe Illustrator 21.1.0, SVG Export Plug-In . SVG Version: 6.00 Build 0)  -->
<svg version="1.1" id="Layer_1" xmlns="http://www.w3.org/2000/svg" xmlns:xlink="http://www.w3.org/1999/xlink" x="0px" y="0px"
	 viewBox="0 0 392 80.7" style="enable-background:new 0 0 392 80.7;" xml:space="preserve">
<style type="text/css">
	.st0{fill:#F44747;}
</style>
<title>hacktivate-logo</title>
<g>
	<path class="st0" d="M1.6,48.4c0.5,2.6,1.3,5.1,2.3,7.5s2.2,4.6,3.7,6.7c1.4,2.1,3,4.1,4.9,5.8c1.8,1.8,3.8,3.5,5.9,4.8
		c2.1,1.4,4.4,2.7,6.8,3.7s4.9,1.8,7.5,2.3c5.3,1.1,10.8,1.1,16,0c2.6-0.5,5.1-1.3,7.5-2.3s4.6-2.2,6.7-3.7c1-0.6,1.3-1.9,0.7-2.9
		l-0.1-0.1c-0.7-1-2-1.3-3-0.6c-1.9,1.3-3.9,2.4-6.1,3.2c-2.1,0.9-4.4,1.6-6.7,2c-4.7,0.9-9.6,0.9-14.3,0c-2.3-0.5-4.5-1.2-6.7-2
		c-2.1-0.9-4.1-2-6.1-3.2c-3.8-2.6-7-5.8-9.6-9.6c-1.3-1.9-2.4-3.9-3.2-6.1c-0.9-2.1-1.6-4.4-2-6.7c-0.5-2.4-0.7-4.8-0.7-7.2
		s0.2-4.8,0.7-7.2c0.5-2.3,1.2-4.5,2-6.6c0.9-2.1,2-4.1,3.2-6.1c0.7-0.9,0.5-2.2-0.5-2.9l-0.1-0.1c-0.3-0.2-0.8-0.4-1.2-0.3
		c-0.7,0-1.4,0.4-1.8,0.9c-1.4,2.1-2.7,4.4-3.7,6.7c-1,2.4-1.8,5-2.3,7.6C0.5,37.5,0.5,43,1.6,48.4L1.6,48.4z"/>
	<path class="st0" d="M40.7,80.5c-2.7,0-5.5-0.3-8.1-0.8c-2.5-0.5-5-1.3-7.6-2.3c-2.2-0.9-4.6-2.2-6.9-3.7c-1.9-1.2-3.9-2.8-6-4.9
		c-1.7-1.6-3.4-3.5-5-5.9c-1.5-2.1-2.7-4.3-3.7-6.8c-1.1-2.6-1.9-5.1-2.3-7.6C0,43.2,0,37.7,0.9,31.9c0.5-2.6,1.3-5.2,2.3-7.7
		c1-2.2,2.2-4.5,3.7-6.8c0.5-0.7,1.4-1.1,2.2-1.1c0.5-0.1,1.1,0.1,1.5,0.4l0.2,0.2c0.5,0.4,0.9,1,1,1.7c0.1,0.7-0.1,1.3-0.5,1.9
		c-1.4,2.3-2.3,4.2-3.1,6c-0.9,2.3-1.5,4.4-2,6.5c-0.5,2.2-0.7,4.5-0.7,7.1s0.2,4.9,0.7,7.1c0.4,2.2,1.1,4.5,2,6.6
		c0.7,2,1.8,4,3.2,6c2.6,3.7,5.7,6.9,9.5,9.5c2.3,1.4,4.2,2.4,6,3.2c2.5,0.9,4.6,1.5,6.6,2c4.6,0.9,9.5,0.9,14.1,0
		c2.2-0.4,4.5-1.1,6.6-2c2-0.7,4-1.8,6-3.2c1.2-0.8,2.8-0.5,3.7,0.7L64,70c0.7,1.2,0.4,2.8-0.9,3.6c-2.1,1.5-4.3,2.7-6.8,3.7
		c-2.6,1.1-5.1,1.9-7.6,2.3C46.2,80.2,43.5,80.5,40.7,80.5z M9.2,17.3c-0.6,0-1.1,0.4-1.4,0.7c-1.4,2.2-2.7,4.4-3.6,6.6
		c-1,2.4-1.8,5-2.3,7.5C1,37.7,1,43.2,2.1,48.3l0,0c0.5,2.4,1.2,4.9,2.3,7.4c1,2.4,2.2,4.6,3.6,6.6c1.6,2.3,3.1,4.2,4.8,5.7
		c2,2,3.9,3.6,5.8,4.7c2.3,1.5,4.6,2.8,6.7,3.7c2.5,1,5,1.8,7.4,2.3c5.2,1.1,10.7,1.1,15.8,0c2.4-0.5,4.9-1.2,7.4-2.3
		c2.4-1,4.6-2.2,6.6-3.6c0.8-0.5,1-1.4,0.6-2.2l-0.1-0.1c-0.6-0.9-1.6-1.1-2.4-0.5c-2.1,1.4-4.1,2.5-6.2,3.3c-2.2,0.9-4.5,1.6-6.8,2
		c-4.7,0.9-9.7,0.9-14.5,0c-2.1-0.5-4.2-1.1-6.8-2c-1.9-0.8-3.8-1.8-6.2-3.2c-3.9-2.6-7.1-5.9-9.8-9.7c-1.4-2.1-2.5-4.1-3.3-6.2
		c-0.9-2.2-1.6-4.5-2-6.8C4.8,45,4.6,42.6,4.6,40s0.2-5,0.7-7.3c0.5-2.1,1.1-4.3,2-6.7c0.8-1.9,1.8-3.8,3.2-6.2
		c0.3-0.4,0.4-0.8,0.3-1.2c-0.1-0.4-0.3-0.8-0.7-1.1L10,17.5c-0.2-0.1-0.5-0.2-0.7-0.2L9.2,17.3z"/>
</g>
<g>
	<path class="st0" d="M40.6,4.9c2.4,0,4.8,0.3,7.2,0.7c2.3,0.5,4.5,1.2,6.7,2c2.1,0.9,4.1,2,6.1,3.2c3.8,2.6,7,5.8,9.6,9.6
		c1.3,1.9,2.4,3.9,3.2,6.1c0.9,2.1,1.6,4.4,2,6.7c0.5,2.4,0.7,4.8,0.7,7.2s-0.2,4.8-0.7,7.2c-0.5,2.3-1.2,4.5-2,6.7
		c-0.9,2.1-2,4.1-3.2,6.1c-0.7,0.9-0.5,2.2,0.5,2.9l0.1,0.1c0.9,0.7,2.2,0.5,2.9-0.5l0.1-0.1c1.5-2.1,2.7-4.4,3.7-6.7
		c1-2.4,1.8-4.9,2.3-7.5s0.8-5.3,0.8-8s-0.3-5.4-0.8-8s-1.3-5.1-2.3-7.5s-2.2-4.6-3.7-6.7c-1.4-2.1-3-4.1-4.8-5.8
		c-1.8-1.8-3.8-3.5-5.9-4.9C61,6.1,58.7,4.9,56.4,4c-2.4-1-5-1.8-7.6-2.4c-2.6-0.5-5.3-0.8-8-0.8s-5.4,0.3-8,0.8s-5.1,1.3-7.5,2.3
		S20.7,6,18.6,7.5c-1,0.6-1.3,1.9-0.7,2.9l0.1,0.1c0.3,0.5,0.8,0.8,1.4,0.9c0.6,0.1,1.1,0,1.6-0.4l0,0c1.9-1.3,3.9-2.4,6-3.2
		c2.1-0.9,4.4-1.6,6.7-2C35.8,5.1,38.2,4.9,40.6,4.9z"/>
	<path class="st0" d="M72,64.3c-0.5,0-1.1-0.2-1.5-0.5l-0.1-0.1c-0.5-0.4-0.9-1-1-1.7c-0.1-0.7,0.1-1.3,0.5-1.9
		c1.4-2.3,2.3-4.2,3.1-6c0.9-2.5,1.5-4.6,2-6.6c0.5-2.2,0.7-4.5,0.7-7.1c0-2.5-0.2-4.9-0.7-7.1c-0.4-2.2-1.1-4.5-2-6.6
		c-0.7-2-1.8-4-3.2-6c-2.6-3.7-5.7-6.9-9.5-9.5c-2.3-1.4-4.2-2.4-6-3.2c-2.5-0.9-4.6-1.5-6.6-2c-2.9-0.5-5-0.7-7.1-0.7
		c-2.8,0-5,0.3-6.7,0.9c-2.3,0.4-4.6,1.1-6.7,2c-2,0.7-3.9,1.8-5.9,3.2c-0.6,0.4-1.2,0.6-2,0.5c-0.7-0.1-1.3-0.5-1.7-1.1l-0.1-0.2
		c-0.4-0.6-0.5-1.3-0.3-2c0.2-0.7,0.6-1.3,1.2-1.6c1.9-1.3,4-2.5,6.8-3.6c2.6-1.1,5.1-1.9,7.6-2.3c2.8-0.5,5.5-0.8,8.1-0.8
		c2.6,0,5.3,0.3,8.1,0.8c2.8,0.6,5.4,1.5,7.7,2.4c2.5,1,4.8,2.3,6.8,3.8c2,1.3,4,3,6,4.9c1.7,1.6,3.3,3.6,4.9,5.9
		c1.5,2.1,2.7,4.3,3.7,6.8c1.1,2.6,1.9,5.1,2.3,7.6c0.5,2.8,0.8,5.5,0.8,8.1s-0.3,5.3-0.8,8.1c-0.5,2.5-1.3,5-2.3,7.6
		c-1.2,2.7-2.4,4.9-3.8,6.8l-0.2,0.2c-0.4,0.5-1,0.9-1.7,1C72.2,64.3,72.1,64.3,72,64.3z M40.6,4.4c2.1,0,4.3,0.2,7.3,0.7
		c2.1,0.5,4.2,1.1,6.8,2c1.9,0.8,3.8,1.8,6.2,3.2c3.9,2.6,7.1,5.9,9.8,9.7c1.4,2.1,2.5,4.1,3.3,6.2c0.9,2.2,1.6,4.5,2,6.8
		c0.5,2.3,0.7,4.7,0.7,7.3c0,2.6-0.2,5-0.7,7.3c-0.4,2.1-1.1,4.2-2,6.8c-0.8,1.9-1.8,3.8-3.2,6.2c-0.3,0.4-0.4,0.8-0.3,1.2
		c0.1,0.4,0.3,0.8,0.7,1.1l0.2,0.2c0.3,0.2,0.7,0.3,1.1,0.2c0.4-0.1,0.8-0.3,1.1-0.7l0.2-0.2c1.3-1.8,2.5-4,3.6-6.5
		c1-2.5,1.8-5,2.3-7.4c0.5-2.7,0.8-5.4,0.8-7.9s-0.3-5.2-0.8-7.9c-0.5-2.4-1.2-4.9-2.3-7.4c-1-2.4-2.2-4.6-3.6-6.6
		c-1.5-2.3-3.1-4.2-4.7-5.7c-1.9-1.9-3.9-3.5-5.8-4.8c-1.9-1.5-4.1-2.7-6.6-3.7c-2.3-1-4.8-1.8-7.5-2.4c-2.7-0.5-5.4-0.8-7.9-0.8
		c-2.5,0-5.2,0.3-7.9,0.8c-2.4,0.5-4.9,1.2-7.4,2.3c-2.7,1.1-4.8,2.2-6.6,3.5c-0.8,0.5-1,1.4-0.6,2.2l0.1,0.1
		c0.3,0.4,0.7,0.6,1.1,0.7c0.5,0.1,0.8,0,1.2-0.3c2.1-1.4,4.1-2.5,6.1-3.3c2.2-0.9,4.5-1.6,6.8-2C35.4,4.7,37.7,4.4,40.6,4.4z"/>
</g>
<g>
	<path class="st0" d="M28.6,28.1c-0.6,0-1.1,0.2-1.5,0.6l-10,10c-0.8,0.8-0.9,2.2,0,3l0,0l10,10c0.9,0.8,2.2,0.8,3.1,0
		c0.8-0.8,0.9-2.2,0-3l0,0l-8.5-8.5l8.5-8.5c0.8-0.9,0.8-2.2,0-3.1C29.7,28.3,29.2,28.1,28.6,28.1z"/>
	<path class="st0" d="M28.6,52.8c-0.7,0-1.3-0.2-1.9-0.7l-10-10c-0.5-0.4-0.8-1-0.8-1.7c0-0.7,0.3-1.5,0.8-2l10-10
		c0.5-0.5,1.1-0.7,1.9-0.7c0.6,0,1.2,0.2,1.9,0.6l0.1,0.1c1,1.1,1,2.7,0,3.8l-8.2,8.2l8.1,8.1c0.5,0.4,0.8,1,0.8,1.7
		c0,0.7-0.3,1.5-0.8,2C30,52.6,29.3,52.8,28.6,52.8z M28.6,28.6c-0.5,0-0.8,0.1-1.1,0.5l-10,10c-0.3,0.3-0.5,0.8-0.5,1.2
		c0,0.4,0.2,0.8,0.5,1l10,10c0.7,0.6,1.7,0.6,2.4,0c0.3-0.3,0.5-0.8,0.5-1.2c0-0.4-0.2-0.8-0.5-1L21,40.2l8.9-8.9
		c0.6-0.7,0.6-1.7,0-2.4C29.4,28.7,29,28.6,28.6,28.6z"/>
</g>
<g>
	<path class="st0" d="M52.7,28.2c-1.2,0-2.2,1-2.2,2.2c0,0.6,0.2,1.1,0.6,1.5l8.5,8.5l-8.5,8.5c-0.8,0.8-0.8,2.2,0,3.1l0,0
		c0.4,0.4,1,0.6,1.5,0.6c0.6,0,1.1-0.2,1.5-0.6l10-10c0.8-0.8,0.8-2.2,0-3.1l0,0l-10-10C53.9,28.5,53.3,28.2,52.7,28.2z"/>
	<path class="st0" d="M52.6,53.1c-0.7,0-1.4-0.3-1.9-0.7c-1-1.1-1-2.8,0-3.8l8.1-8.1l-8.1-8.1c-0.5-0.5-0.7-1.1-0.7-1.9
		c0-1.5,1.2-2.7,2.7-2.7c0.8,0,1.5,0.4,1.8,0.9l10,10c1,1.1,1,2.8,0,3.8l-10,10C54,52.8,53.3,53.1,52.6,53.1z M52.7,28.7
		c-0.9,0-1.7,0.8-1.7,1.7c0,0.5,0.1,0.8,0.5,1.1l8.9,8.9l-8.9,8.9c-0.6,0.6-0.6,1.7,0,2.4c0.3,0.3,0.7,0.4,1.1,0.4
		c0.5,0,0.8-0.1,1.1-0.5l10-10c0.6-0.6,0.6-1.7,0-2.4L53.7,29.1C53.6,28.9,53.1,28.7,52.7,28.7z"/>
</g>
<g>
	<path class="st0" d="M40.5,21.3c-1.2,0-2.1,0.9-2.1,2.1c0,0,0,0,0,0.1v14.9c0.1,1.2,1.1,2.1,2.3,2c1.1-0.1,1.9-0.9,2-2v-15
		C42.7,22.3,41.8,21.3,40.5,21.3C40.6,21.3,40.6,21.3,40.5,21.3z"/>
	<path class="st0" d="M40.5,40.9c-1.4,0-2.5-1-2.6-2.5l0-15c0-1.5,1.1-2.6,2.6-2.6l0.1,0c1.5,0,2.6,1.2,2.6,2.6v15
		c-0.1,1.4-1.1,2.4-2.5,2.5C40.7,40.9,40.6,40.9,40.5,40.9z M40.5,21.8c-0.9,0-1.6,0.7-1.6,1.6v15c0.1,0.9,0.9,1.6,1.8,1.5
		c0.9-0.1,1.5-0.7,1.5-1.5l0-15C42.2,22.6,41.6,21.8,40.5,21.8z"/>
</g>
<g>
	<path class="st0" d="M123.3,22.7c-0.3,0.3-0.5,0.7-0.5,1.2v13.3H104V23.9c0-0.5-0.2-0.9-0.5-1.2c-0.7-0.6-1.8-0.6-2.5,0
		c-0.3,0.3-0.5,0.7-0.5,1.2v32.8c0,0.5,0.2,0.9,0.5,1.2c0.7,0.6,1.8,0.6,2.5,0c0.3-0.3,0.5-0.7,0.5-1.2v-16h18.8v16
		c0,0.9,0.8,1.7,1.7,1.7c0.9,0,1.7-0.8,1.7-1.7V23.9c0-0.5-0.2-0.9-0.5-1.2C125.1,22.1,124.1,22,123.3,22.7L123.3,22.7z"/>
	<path class="st0" d="M124.5,59.2c-1.3,0-2.5-1.1-2.5-2.5V41.5h-17.3v15.2c0,0.7-0.2,1.3-0.7,1.7c-1,0.9-2.5,0.9-3.5,0
		c-0.5-0.5-0.8-1.1-0.8-1.8V23.9c0-0.7,0.2-1.3,0.7-1.7c1-0.9,2.5-0.9,3.5,0c0.5,0.5,0.8,1.1,0.8,1.8v12.6H122V23.9
		c0-0.7,0.2-1.2,0.7-1.7l0.1-0.1c1-0.9,2.5-0.9,3.4,0c0.5,0.5,0.7,1.1,0.7,1.7v32.8C127,58,125.8,59.2,124.5,59.2z M103.2,40h20.3
		v16.8c0,0.5,0.5,1,1,1s1-0.5,1-1V23.9c0-0.3-0.1-0.5-0.3-0.7c-0.3-0.3-0.8-0.4-1.3,0l0,0c-0.2,0.2-0.3,0.4-0.3,0.6V38h-20.3V23.9
		c0-0.3-0.1-0.5-0.3-0.7c-0.4-0.3-1.1-0.3-1.5,0c-0.1,0.1-0.2,0.4-0.2,0.6v32.8c0,0.3,0.1,0.5,0.3,0.7c0.4,0.3,1.1,0.3,1.5,0
		c0.1-0.2,0.2-0.4,0.2-0.6V40z"/>
</g>
<g>
	<path class="st0" d="M163.2,57.3c0.2,0.7,0.9,1.1,1.6,1.1c0.2,0,0.5,0,0.7-0.1c0.4-0.2,0.7-0.6,0.9-1s0.2-0.9,0-1.3l-4.2-9.9l0,0
		l-9.7-22.9c-0.3-0.7-0.9-1.1-1.6-1.1c-0.7,0-1.4,0.4-1.6,1.1L135.4,56c-0.2,0.4-0.2,0.9,0,1.3c0.2,0.4,0.5,0.8,0.9,1
		c0.2,0.1,0.5,0.1,0.7,0.1s0.5,0,0.7-0.1c0.4-0.1,0.8-0.5,0.9-0.9l12.4-29L163.2,57.3z"/>
	<path class="st0" d="M164.8,59.2c-1.1,0-2-0.7-2.3-1.6L151,30.3l-11.7,27.3c-0.2,0.6-0.7,1.2-1.4,1.4c-0.3,0.1-0.7,0.1-1,0.1
		c-0.3,0-0.7,0-1-0.2c-0.6-0.3-1-0.9-1.2-1.3c-0.3-0.6-0.3-1.4,0-2l13.9-32.8c0.2-0.9,1.2-1.6,2.3-1.6c1,0,1.9,0.6,2.3,1.6
		l13.9,32.8c0.3,0.6,0.3,1.3,0,1.9c-0.2,0.4-0.6,1-1.2,1.3C165.5,59.2,165.1,59.2,164.8,59.2z M151,26.5l12.9,30.6
		c0.1,0.4,0.5,0.6,0.9,0.6c0.1,0,0.3,0,0.4,0c0.2-0.1,0.4-0.3,0.6-0.7c0.1-0.2,0.1-0.4,0-0.6l-13.9-32.8c-0.2-0.4-0.5-0.6-0.9-0.6
		c-0.3,0-0.8,0.2-0.9,0.6l-13.9,32.9c-0.1,0.2-0.1,0.5,0,0.7c0.2,0.3,0.4,0.6,0.6,0.7c0.1,0,0.3,0,0.4,0s0.3,0,0.4,0l0.1-0.1
		c0.1,0,0.3-0.2,0.4-0.4l0-0.1L151,26.5z"/>
</g>
<g>
	<path class="st0" d="M189.6,25.6c3.9-0.1,7.7,1.5,10.4,4.3c0.7,0.7,1.8,0.6,2.5-0.1c0.6-0.7,0.6-1.7,0-2.4c-3.4-3.4-8-5.3-12.8-5.3
		c-10,0-18.1,8.1-18.1,18.1l0,0c0,10,8.1,18.1,18.1,18.1l0,0c4.8,0,9.4-1.9,12.8-5.3c0.7-0.7,0.6-1.8-0.1-2.5
		c-0.7-0.6-1.7-0.6-2.4,0c-5.7,5.7-15,5.7-20.7,0c-2.7-2.8-4.3-6.5-4.3-10.4c-0.1-3.9,1.5-7.6,4.3-10.3S185.8,25.5,189.6,25.6z"/>
	<path class="st0" d="M189.7,59c-10.4,0-18.9-8.5-18.9-18.8c0-10.4,8.5-18.9,18.9-18.9c5,0,9.8,2,13.3,5.5c0.9,1,0.9,2.4,0,3.4
		c-0.5,0.5-1.1,0.8-1.8,0.8c-0.7,0-1.3-0.2-1.8-0.7c-2.6-2.7-6.2-4.2-9.9-4.1l0,0l0,0c-3.5-0.1-7,1.4-9.8,4
		c-2.7,2.6-4.2,6.1-4.1,9.7c0,3.7,1.5,7.2,4.1,9.9c5.4,5.4,14.2,5.4,19.6,0c1-0.9,2.4-0.9,3.4,0c1.1,1.1,1.1,2.6,0.1,3.6
		C199.5,57.1,194.7,59,189.7,59z M189.7,22.9c-9.6,0-17.4,7.8-17.4,17.4c0,9.6,7.8,17.3,17.4,17.3c4.6,0,9-1.8,12.3-5.1
		c0.4-0.4,0.3-1.1-0.1-1.4c-0.4-0.3-1-0.3-1.4,0c-6,6-15.7,6-21.7,0c-2.9-3-4.5-6.9-4.5-10.9c-0.1-4,1.5-8,4.5-10.8
		c3-2.9,6.9-4.5,10.8-4.4c4.1-0.1,8.1,1.6,10.9,4.5c0.4,0.4,1.1,0.3,1.4-0.1c0.3-0.4,0.3-1,0-1.4C198.7,24.7,194.3,22.9,189.7,22.9z
		"/>
</g>
<g>
	<path class="st0" d="M227,24.2c0-0.5-0.2-0.9-0.5-1.2c-0.6-0.7-1.7-0.7-2.4-0.1L208,38.3c-0.6,0.5-1,1.2-1.1,2
		c0.1,0.8,0.5,1.5,1.1,2.1l16.1,15.4c0.3,0.3,0.8,0.5,1.2,0.5c0.5,0,0.9-0.2,1.3-0.5c0.3-0.3,0.5-0.8,0.5-1.2c0-0.5-0.2-0.9-0.5-1.2
		l-15.6-15l15.6-15C226.9,25.1,227.1,24.7,227,24.2z"/>
	<path class="st0" d="M225.3,59c-0.6,0-1.3-0.3-1.7-0.7l-16.1-15.4c-0.8-0.8-1.2-1.6-1.3-2.5l0-0.1l0-0.1c0.1-1,0.6-1.9,1.4-2.5
		l16.1-15.4c0.5-0.4,1.2-0.6,1.8-0.6c0.7,0,1.3,0.3,1.7,0.8c0.4,0.4,0.7,1,0.7,1.6c0.1,0.7-0.1,1.3-0.6,1.8l-15,14.5l15,14.5
		c0.5,0.5,0.7,1.1,0.7,1.7c0,0.6-0.3,1.3-0.7,1.7l-0.1,0.1C226.6,58.7,226.1,59,225.3,59z M207.7,40.3c0.1,0.6,0.4,1.1,0.9,1.6
		l16.1,15.4c0.2,0.2,0.5,0.3,0.7,0.3c0.3,0,0.5-0.1,0.8-0.3c0.1-0.2,0.2-0.4,0.2-0.6c0-0.3-0.1-0.5-0.3-0.7l-16.2-15.5l16.2-15.5
		c0.2-0.2,0.2-0.4,0.2-0.5l0-0.1c0-0.3-0.1-0.5-0.3-0.7c-0.2-0.3-0.5-0.3-0.7-0.3c-0.2,0-0.5,0.1-0.7,0.3l-16.1,15.4
		C208,39.2,207.8,39.7,207.7,40.3z"/>
</g>
<g>
	<path class="st0" d="M255.9,22.2h-19.1c-0.9,0-1.7,0.8-1.7,1.7c0,0.4,0.2,0.9,0.5,1.2c0.3,0.4,0.7,0.5,1.2,0.5h7.8v31
		c0,0.5,0.2,0.9,0.5,1.2c0.4,0.3,0.8,0.5,1.3,0.5c0.9,0,1.7-0.8,1.7-1.7v-31h7.8c0.5,0,0.9-0.2,1.2-0.5c0.3-0.3,0.5-0.8,0.5-1.2
		c0-0.5-0.2-0.9-0.5-1.2C256.8,22.4,256.4,22.2,255.9,22.2z"/>
	<path class="st0" d="M246.4,59c-0.8,0-1.3-0.3-1.8-0.6l-0.1-0.1c-0.5-0.5-0.7-1.1-0.7-1.7V26.4h-7c-0.5,0-1.2-0.1-1.8-0.8
		c-0.4-0.4-0.7-1.1-0.7-1.7c0-1.3,1.1-2.4,2.5-2.4h19.1c0.7,0,1.3,0.2,1.7,0.7c0.5,0.5,0.7,1.1,0.7,1.7c0,0.6-0.3,1.3-0.7,1.7
		c-0.5,0.5-1.1,0.7-1.7,0.7h-7.1v30.2C248.8,57.9,247.7,59,246.4,59z M245.6,57.2c0.3,0.2,0.5,0.3,0.8,0.3c0.5,0,0.9-0.5,0.9-1V24.9
		h8.6c0.3,0,0.5-0.1,0.7-0.3c0.2-0.2,0.3-0.5,0.3-0.7c0-0.3-0.1-0.5-0.3-0.7c-0.2-0.2-0.4-0.3-0.7-0.3h-19.1c-0.5,0-1,0.5-1,0.9
		c0,0.2,0.1,0.5,0.3,0.7l0.1,0.1c0.1,0.1,0.2,0.2,0.6,0.2h8.5v31.7C245.3,56.8,245.4,57.1,245.6,57.2z"/>
</g>
<g>
	<path class="st0" d="M267,22.7c-0.3,0.3-0.5,0.7-0.5,1.2v32.8c0,0.9,0.8,1.7,1.7,1.7c0.5,0,0.9-0.2,1.3-0.5
		c0.3-0.3,0.5-0.7,0.5-1.2V23.9c0-0.5-0.2-0.9-0.5-1.2C268.9,22,267.7,22,267,22.7"/>
	<path class="st0" d="M268.2,59.2c-1.3,0-2.5-1.1-2.5-2.5V23.9c0-0.7,0.2-1.3,0.7-1.7c0.5-0.5,1.2-0.8,1.9-0.7
		c0.7,0,1.3,0.3,1.7,0.8c0.4,0.4,0.7,1,0.7,1.7v32.8c0,0.7-0.2,1.3-0.7,1.7l-0.1,0.1C269.5,58.8,269,59.2,268.2,59.2z M268.3,22.9
		c-0.3,0-0.6,0.1-0.8,0.3c-0.2,0.2-0.3,0.4-0.3,0.7v32.8c0,0.5,0.5,1,1,1c0.3,0,0.5-0.1,0.8-0.3c0.2-0.2,0.2-0.4,0.2-0.6V23.9
		c0-0.3-0.1-0.5-0.3-0.7C268.8,23,268.6,22.9,268.3,22.9C268.3,22.9,268.3,22.9,268.3,22.9z"/>
</g>
<g>
	<path class="st0" d="M307,22.2c-0.7,0-1.4,0.4-1.6,1.1l-11.6,28.8l-11.6-28.8c-0.3-0.7-0.9-1.1-1.6-1.1c-0.9,0-1.7,0.8-1.7,1.7
		c0,0.2,0,0.5,0.1,0.7l13.2,32.8c0.3,0.9,1.3,1.3,2.2,1c0.5-0.2,0.8-0.5,1-1l13.2-32.7c0.1-0.2,0.2-0.5,0.2-0.7
		c0-0.5-0.2-0.9-0.5-1.2C308,22.4,307.5,22.2,307,22.2z"/>
	<path class="st0" d="M293.8,59.2c-1,0-2-0.6-2.3-1.6l-13.2-32.8c-0.2-0.3-0.2-0.7-0.2-1c0-1.3,1.1-2.4,2.4-2.4c1,0,1.9,0.6,2.3,1.6
		l10.9,27.1L304.7,23c0.2-0.9,1.2-1.6,2.3-1.6c0.7,0,1.4,0.3,1.9,0.9c0.4,0.5,0.7,1,0.7,1.7c0,0.4-0.1,0.8-0.3,1l-13.2,32.6
		c-0.3,0.7-0.7,1.1-1.4,1.4C294.4,59.2,294.1,59.2,293.8,59.2z M280.6,23c-0.5,0-0.9,0.5-0.9,0.9c0,0.1,0,0.3,0,0.4l13.2,32.8
		c0.2,0.6,0.8,0.7,1.3,0.6c0.3-0.1,0.4-0.3,0.5-0.6l13.2-32.7c0.1-0.2,0.1-0.4,0.1-0.4c0-0.3-0.1-0.5-0.3-0.7l-0.1-0.1
		c-0.1-0.2-0.4-0.3-0.7-0.3c-0.3,0-0.8,0.2-0.9,0.6l-12.3,30.6l-12.3-30.5C281.3,23.2,281,23,280.6,23z"/>
</g>
<g>
	<path class="st0" d="M336.9,57.3c0.2,0.7,0.9,1.1,1.6,1.1c0.2,0,0.5,0,0.7-0.1c0.4-0.2,0.7-0.6,0.9-1c0.2-0.4,0.2-0.9,0-1.3
		l-4.2-9.9l0,0l-9.7-22.9c-0.3-0.7-0.9-1.1-1.6-1.1s-1.4,0.4-1.6,1.1L309.1,56c-0.2,0.4-0.2,0.9,0,1.3c0.2,0.4,0.5,0.8,0.9,1
		c0.2,0.1,0.5,0.1,0.7,0.1s0.5,0,0.7-0.1c0.4-0.1,0.8-0.5,0.9-0.9l12.4-29L336.9,57.3z"/>
	<path class="st0" d="M338.5,59.2c-1.1,0-2-0.7-2.3-1.6l-11.5-27.2L313,57.6c-0.2,0.6-0.7,1.2-1.4,1.4c-0.3,0.1-0.7,0.1-1,0.1
		c-0.3,0-0.7,0-1-0.2c-0.6-0.3-1-0.9-1.2-1.3c-0.3-0.6-0.3-1.4,0-2l13.9-32.8c0.2-0.9,1.2-1.6,2.3-1.6c1,0,1.9,0.6,2.3,1.6
		l13.9,32.8c0.3,0.6,0.3,1.3,0,1.9c-0.2,0.4-0.6,1-1.2,1.3C339.2,59.2,338.8,59.2,338.5,59.2z M324.7,26.5l12.9,30.6
		c0.1,0.4,0.5,0.6,0.9,0.6c0.1,0,0.3,0,0.4,0c0.2-0.1,0.4-0.3,0.6-0.7c0.1-0.2,0.1-0.4,0-0.6l-13.9-32.8c-0.2-0.4-0.5-0.6-0.9-0.6
		c-0.3,0-0.8,0.2-0.9,0.6l-13.9,32.9c-0.1,0.2-0.1,0.5,0,0.7c0.2,0.3,0.4,0.6,0.6,0.7c0.1,0,0.3,0,0.4,0s0.3,0,0.4,0l0.1-0.1
		c0.1,0,0.3-0.2,0.4-0.4l0-0.1L324.7,26.5z"/>
</g>
<g>
	<path class="st0" d="M361.2,22.2h-19.1c-0.9,0-1.7,0.8-1.7,1.7c0,0.4,0.2,0.9,0.5,1.2c0.3,0.4,0.7,0.5,1.2,0.5h7.8v31
		c0,0.5,0.2,0.9,0.5,1.2c0.4,0.3,0.8,0.5,1.3,0.5c0.9,0,1.7-0.8,1.7-1.7v-31h7.8c0.5,0,0.9-0.2,1.2-0.5c0.3-0.3,0.5-0.8,0.5-1.2
		c0-0.5-0.2-0.9-0.5-1.2C362.1,22.3,361.7,22.2,361.2,22.2z"/>
	<path class="st0" d="M351.7,59c-0.8,0-1.3-0.3-1.8-0.7l-0.1-0.1c-0.5-0.5-0.7-1.1-0.7-1.7V26.4h-7.1c-0.5,0-1.2-0.1-1.8-0.8
		c-0.4-0.4-0.7-1.1-0.7-1.7c0-1.3,1.1-2.4,2.4-2.4h19.1c0.5,0,1.2,0.1,1.8,0.8c0.4,0.5,0.7,1,0.7,1.7c0,0.6-0.3,1.3-0.7,1.7
		c-0.5,0.5-1.1,0.7-1.7,0.7h-7v30.2C354.2,57.9,353,59,351.7,59z M350.9,57.2c0.3,0.2,0.5,0.3,0.8,0.3c0.5,0,1-0.5,1-1V24.9h8.5
		c0.3,0,0.5-0.1,0.7-0.3c0.2-0.2,0.3-0.5,0.3-0.7c0-0.3-0.1-0.5-0.3-0.7l-0.1-0.1c-0.1-0.1-0.2-0.2-0.6-0.2h-19.1
		c-0.5,0-0.9,0.5-0.9,0.9c0,0.2,0.1,0.5,0.3,0.7l0.1,0.1c0.1,0.1,0.2,0.2,0.6,0.2h8.6v31.7C350.7,56.8,350.7,57.1,350.9,57.2z"/>
</g>
<g>
	<path class="st0" d="M389.5,54.9h-15.2V41.8h12c0.9,0,1.7-0.8,1.7-1.7s-0.8-1.7-1.7-1.7h-12V25.5h15.2c0.5,0,0.9-0.2,1.2-0.5
		c0.3-0.3,0.5-0.8,0.5-1.2c0-0.5-0.2-0.9-0.5-1.2c-0.3-0.3-0.8-0.5-1.2-0.5h-17c-0.9,0-1.7,0.8-1.7,1.7v33c0,0.9,0.8,1.7,1.7,1.7h17
		c0.5,0,0.9-0.2,1.2-0.5c0.4-0.3,0.5-0.7,0.5-1.2s-0.2-0.9-0.5-1.3C390.5,55.1,390,54.9,389.5,54.9z"/>
	<path class="st0" d="M389.5,59.2h-17c-1.3,0-2.5-1.1-2.5-2.5v-33c0-1.3,1.1-2.4,2.5-2.4h17c0.6,0,1.3,0.3,1.7,0.7
		c0.5,0.5,0.7,1.1,0.7,1.7c0,0.6-0.3,1.3-0.7,1.7c-0.5,0.5-1.1,0.7-1.7,0.7H375v11.4h11.2c1.3,0,2.5,1.1,2.5,2.5s-1.1,2.4-2.5,2.4
		H375v11.6h14.5c0.8,0,1.5,0.4,1.8,0.9c0.3,0.4,0.6,1,0.6,1.7c0,0.5-0.1,1.2-0.8,1.8C390.7,59,390.1,59.2,389.5,59.2z M372.5,22.9
		c-0.5,0-1,0.5-1,0.9v33c0,0.5,0.5,1,1,1h17c0.3,0,0.5-0.1,0.7-0.3l0.1-0.1c0.1-0.1,0.2-0.2,0.2-0.6c0-0.3-0.1-0.5-0.4-0.9l-0.1-0.1
		c0-0.1-0.2-0.2-0.5-0.2h-16V41h12.8c0.5,0,1-0.5,1-0.9s-0.5-1-1-1h-12.8V24.8h16c0.3,0,0.5-0.1,0.7-0.3c0.2-0.2,0.3-0.5,0.3-0.7
		c0-0.3-0.1-0.5-0.3-0.7c-0.2-0.2-0.5-0.3-0.7-0.3H372.5z"/>
</g>
</svg>
