<?xml version="1.0" encoding="utf-8"?>
<!-- Generator: Adobe Illustrator 20.1.0, SVG Export Plug-In . SVG Version: 6.00 Build 0)  -->
<svg version="1.1" id="Layer_1" xmlns="http://www.w3.org/2000/svg" xmlns:xlink="http://www.w3.org/1999/xlink" x="0px" y="0px"
	 viewBox="0 0 209.2 42.4" style="enable-background:new 0 0 209.2 42.4;" xml:space="preserve">
<style type="text/css">
	.st0{fill:#FFF;}
</style>
<g id="XMLID_43_">
	<g>
		<path class="st0" d="M29,42.4c-0.4,0-0.8-0.3-0.8-0.8v-4.1c0-0.4,0.3-0.8,0.8-0.8h4.1c0.4,0,0.8,0.3,0.8,0.8v4.1
			c0,0.4-0.3,0.8-0.8,0.8H29z"/>
	</g>
	<g>
		<path class="st0" d="M29,35.3c-0.4,0-0.8-0.3-0.8-0.8v-4.1c0-0.4,0.3-0.8,0.8-0.8h4.1c0.4,0,0.8,0.3,0.8,0.8v4.1
			c0,0.4-0.3,0.8-0.8,0.8H29z"/>
	</g>
	<g>
		<path class="st0" d="M29,28.2c-0.4,0-0.8-0.3-0.8-0.8v-4.1c0-0.4,0.3-0.8,0.8-0.8h4.1c0.4,0,0.8,0.3,0.8,0.8v4.1
			c0,0.4-0.3,0.8-0.8,0.8H29z"/>
	</g>
	<g>
		<path class="st0" d="M30.4,5.6c-0.4,0-0.8-0.3-0.8-0.8v-4C29.7,0.3,30,0,30.4,0h4.1c0.4,0,0.8,0.3,0.8,0.8v4.1
			c0,0.4-0.3,0.8-0.8,0.8h-4.1V5.6z"/>
	</g>
	<g>
		<path class="st0" d="M21.9,42.4c-0.4,0-0.8-0.3-0.8-0.8v-4.1c0-0.4,0.3-0.8,0.8-0.8H26c0.4,0,0.8,0.3,0.8,0.8v4.1
			c0,0.4-0.3,0.8-0.8,0.8H21.9z"/>
	</g>
	<g>
		<path class="st0" d="M21.9,35.3c-0.4,0-0.8-0.3-0.8-0.8v-4.1c0-0.4,0.3-0.8,0.8-0.8H26c0.4,0,0.8,0.3,0.8,0.8v4.1
			c0,0.4-0.3,0.8-0.8,0.8H21.9z"/>
	</g>
	<g>
		<path class="st0" d="M21.9,28.2c-0.4,0-0.8-0.3-0.8-0.8v-4.1c0-0.4,0.3-0.8,0.8-0.8H26c0.4,0,0.8,0.3,0.8,0.8v4.1
			c0,0.4-0.3,0.8-0.8,0.8H21.9z"/>
	</g>
	<g>
		<path class="st0" d="M14.9,28.2c-0.4,0-0.8-0.3-0.8-0.8v-4.1c0-0.4,0.3-0.8,0.8-0.8H19c0.4,0,0.8,0.3,0.8,0.8v4.1
			c0,0.4-0.3,0.8-0.8,0.8H14.9z"/>
	</g>
	<g>
		<path class="st0" d="M7.8,42.4c-0.4,0-0.8-0.3-0.8-0.8v-4.1c0-0.4,0.3-0.8,0.8-0.8h4.1c0.4,0,0.8,0.3,0.8,0.8v4.1
			c0,0.4-0.3,0.8-0.8,0.8H7.8z"/>
	</g>
	<g>
		<path class="st0" d="M7.8,35.3C7.4,35.3,7,35,7,34.5v-4.1c0-0.4,0.3-0.8,0.8-0.8h4.1c0.4,0,0.8,0.3,0.8,0.8v4.1
			c0,0.4-0.3,0.8-0.8,0.8H7.8z"/>
	</g>
	<g>
		<path class="st0" d="M7.8,28.2c-0.4,0-0.8-0.3-0.8-0.8v-4.1c0-0.4,0.3-0.8,0.8-0.8h4.1c0.4,0,0.8,0.3,0.8,0.8v4.1
			c0,0.4-0.3,0.8-0.8,0.8H7.8z"/>
	</g>
	<g>
		<path class="st0" d="M0.8,42.4C0.3,42.4,0,42,0,41.6v-4.1c0-0.4,0.3-0.8,0.8-0.8h4.1c0.4,0,0.8,0.3,0.8,0.8v4.1
			c0,0.4-0.3,0.8-0.8,0.8C4.9,42.4,0.8,42.4,0.8,42.4z"/>
	</g>
	<g>
		<path class="st0" d="M0.8,35.3C0.4,35.3,0,35,0,34.5v-4.1c0-0.4,0.3-0.8,0.8-0.8h4.1c0.4,0,0.8,0.3,0.8,0.8v4.1
			c0,0.4-0.3,0.8-0.8,0.8H0.8z"/>
	</g>
	<g>
		<path class="st0" d="M0.8,28.2c-0.4,0-0.8-0.3-0.8-0.8v-4.1c0-0.4,0.3-0.8,0.8-0.8h4.1c0.4,0,0.8,0.3,0.8,0.8v4.1
			c0,0.4-0.3,0.8-0.8,0.8H0.8z"/>
	</g>
	<g id="XMLID_1_">
		<g>
			<path class="st0" d="M29,21.2c-0.4,0-0.8-0.3-0.8-0.8v-4.1c0-0.4,0.3-0.8,0.8-0.8h4.1c0.4,0,0.8,0.3,0.8,0.8v4.1
				c0,0.4-0.3,0.8-0.8,0.8H29z"/>
		</g>
		<g>
			<path class="st0" d="M29,14.1c-0.4,0-0.8-0.3-0.8-0.8V9.2c0-0.4,0.3-0.8,0.8-0.8h4.1c0.4,0,0.8,0.3,0.8,0.8v4.1
				c0,0.4-0.3,0.8-0.8,0.8C33.1,14.1,29,14.1,29,14.1z"/>
		</g>
		<g>
			<path class="st0" d="M21.9,21.2c-0.4,0-0.8-0.3-0.8-0.8v-4.1c0-0.4,0.3-0.8,0.8-0.8H26c0.4,0,0.8,0.3,0.8,0.8v4.1
				c0,0.4-0.3,0.8-0.8,0.8H21.9z"/>
		</g>
		<g>
			<path class="st0" d="M21.9,14.1c-0.4,0-0.8-0.3-0.8-0.8V9.2c0-0.4,0.3-0.8,0.8-0.8H26c0.4,0,0.8,0.3,0.8,0.8v4.1
				c0,0.4-0.3,0.8-0.8,0.8C26,14.1,21.9,14.1,21.9,14.1z"/>
		</g>
		<g>
			<path class="st0" d="M21.9,7c-0.4,0-0.8-0.3-0.8-0.8v-4c0-0.4,0.3-0.8,0.8-0.8H26c0.4,0,0.8,0.3,0.8,0.8v4.1
				C26.8,6.7,26.5,7,26,7H21.9z"/>
		</g>
		<g>
			<path class="st0" d="M14.9,21.2c-0.4,0-0.8-0.3-0.8-0.8v-4.1c0-0.4,0.3-0.8,0.8-0.8H19c0.4,0,0.8,0.3,0.8,0.8v4.1
				c0,0.4-0.3,0.8-0.8,0.8H14.9z"/>
		</g>
		<g>
			<path class="st0" d="M7.8,21.2c-0.4,0-0.8-0.3-0.8-0.8v-4.1c0-0.4,0.3-0.8,0.8-0.8h4.1c0.4,0,0.8,0.3,0.8,0.8v4.1
				c0,0.4-0.3,0.8-0.8,0.8H7.8z"/>
		</g>
		<g>
			<path class="st0" d="M7.8,14.1c-0.4,0-0.8-0.3-0.8-0.8V9.2c0-0.4,0.3-0.8,0.8-0.8h4.1c0.4,0,0.8,0.3,0.8,0.8v4.1
				c0,0.4-0.3,0.8-0.8,0.8C11.9,14.1,7.8,14.1,7.8,14.1z"/>
		</g>
		<g>
			<path class="st0" d="M7.8,7C7.4,7,7.1,6.7,7.1,6.3V2.2c0-0.4,0.3-0.8,0.8-0.8H12c0.4,0,0.8,0.3,0.8,0.8v4.1
				c0,0.4-0.3,0.8-0.8,0.8H7.8V7z"/>
		</g>
		<g>
			<path class="st0" d="M0.8,21.2c-0.4,0-0.8-0.3-0.8-0.8v-4.1c0-0.4,0.3-0.8,0.8-0.8h4.1c0.4,0,0.8,0.3,0.8,0.8v4.1
				c0,0.4-0.3,0.8-0.8,0.8H0.8z"/>
		</g>
		<g>
			<path class="st0" d="M0.8,14.1c-0.4,0-0.8-0.3-0.8-0.8V9.2c0-0.4,0.3-0.8,0.8-0.8h4.1c0.4,0,0.8,0.3,0.8,0.8v4.1
				c0,0.4-0.3,0.8-0.8,0.8C4.9,14.1,0.8,14.1,0.8,14.1z"/>
		</g>
		<g>
			<path class="st0" d="M0.8,7C0.3,7,0,6.7,0,6.3V2.2c0-0.4,0.3-0.8,0.8-0.8h4.1c0.4,0,0.8,0.3,0.8,0.8v4.1C5.6,6.7,5.3,7,4.9,7H0.8
				z"/>
		</g>
	</g>
</g>
<g>
	<path class="st0" d="M57.6,31.1v-7.3H51v7.3h-3.6V13.4H51v7.2h6.6v-7.2h3.6v17.7C61.2,31.1,57.6,31.1,57.6,31.1z"/>
	<path class="st0" d="M74.2,22.2v5.4c0,0.4,0.1,0.7,0.2,0.9c0.1,0.2,0.3,0.3,0.7,0.4L75,31.5c-0.9,0-1.6-0.1-2.1-0.2
		s-1.1-0.4-1.6-0.7c-1.2,0.6-2.5,0.9-3.8,0.9c-2.7,0-4-1.4-4-4.3c0-1.4,0.4-2.4,1.1-3s1.9-0.9,3.4-1l2.8-0.2v-0.8
		c0-0.5-0.1-0.9-0.4-1.1c-0.2-0.2-0.6-0.3-1.2-0.3L64.3,21l-0.1-2.4c1.9-0.5,3.6-0.8,5.3-0.8c1.7,0,2.9,0.3,3.6,1
		C73.8,19.5,74.2,20.7,74.2,22.2z M68.3,25.6c-1,0.1-1.5,0.6-1.5,1.6s0.4,1.4,1.3,1.4c0.7,0,1.4-0.1,2.2-0.3l0.4-0.1v-2.8L68.3,25.6
		z"/>
	<path class="st0" d="M81.8,17.8c0.9,0,2.1,0.1,3.5,0.4l0.7,0.2l-0.1,2.8c-1.4-0.1-2.4-0.2-3-0.2c-1.2,0-2,0.3-2.4,0.8
		s-0.6,1.5-0.6,2.9s0.2,2.4,0.6,2.9s1.2,0.8,2.4,0.8l3-0.2L86,31c-1.9,0.4-3.3,0.5-4.2,0.5c-1.9,0-3.3-0.5-4.1-1.6
		c-0.8-1.1-1.3-2.8-1.3-5.2s0.4-4.1,1.3-5.2C78.5,18.3,79.9,17.8,81.8,17.8z"/>
	<path class="st0" d="M91.5,31.1H88V12.9h3.5v10.3l1.3-0.2l2.6-4.9h3.9L96,24.3l3.6,6.8h-3.9l-2.7-5l-1.4,0.2L91.5,31.1L91.5,31.1z"
		/>
	<path class="st0" d="M110.9,22.2v5.4c0,0.4,0.1,0.7,0.2,0.9c0.1,0.2,0.3,0.3,0.7,0.4l-0.1,2.6c-0.9,0-1.6-0.1-2.1-0.2
		s-1.1-0.4-1.6-0.7c-1.2,0.6-2.5,0.9-3.8,0.9c-2.7,0-4-1.4-4-4.3c0-1.4,0.4-2.4,1.1-3s1.9-0.9,3.4-1l2.8-0.2v-0.8
		c0-0.5-0.1-0.9-0.4-1.1c-0.2-0.2-0.6-0.3-1.2-0.3L101,21l-0.1-2.4c1.9-0.5,3.6-0.8,5.3-0.8c1.7,0,2.9,0.3,3.6,1
		C110.5,19.5,110.9,20.7,110.9,22.2z M105,25.6c-1,0.1-1.5,0.6-1.5,1.6s0.4,1.4,1.3,1.4c0.7,0,1.4-0.1,2.2-0.3l0.4-0.1v-2.8
		L105,25.6z"/>
	<path class="st0" d="M120.9,21.1h-3.2v5.3c0,0.5,0,0.9,0,1.1s0.1,0.4,0.3,0.6c0.2,0.2,0.4,0.2,0.8,0.2l2-0.1L121,31
		c-1.2,0.3-2,0.4-2.7,0.4c-1.6,0-2.6-0.4-3.2-1.1s-0.9-2-0.9-3.9V21h-1.5v-3h1.5v-3.6h3.5V18h3.2V21.1z"/>
	<path class="st0" d="M126.1,31.1h-3.5V12.9h3.5v5.8c1.2-0.6,2.3-0.9,3.2-0.9c1.7,0,2.9,0.5,3.6,1.5c0.7,1,1,2.6,1,4.7v7h-3.5v-7
		c0-1.1-0.1-1.9-0.4-2.4c-0.3-0.5-0.8-0.8-1.6-0.8c-0.7,0-1.4,0.1-2,0.3l-0.3,0.1C126.1,21.2,126.1,31.1,126.1,31.1z"/>
	<path class="st0" d="M137.2,19.6c0.9-1.2,2.5-1.8,4.6-1.8s3.7,0.6,4.6,1.8c0.9,1.2,1.4,2.9,1.4,5c0,4.6-2,6.8-6,6.8s-6-2.3-6-6.8
		C135.8,22.5,136.3,20.8,137.2,19.6z M139.9,27.5c0.4,0.6,1,0.9,1.9,0.9s1.6-0.3,1.9-0.9c0.4-0.6,0.5-1.6,0.5-2.9s-0.2-2.3-0.5-2.9
		c-0.4-0.6-1-0.9-1.9-0.9s-1.6,0.3-1.9,0.9c-0.4,0.6-0.5,1.6-0.5,2.9S139.5,26.9,139.9,27.5z"/>
	<path class="st0" d="M153.3,31.1h-3.5v-13h3.5v0.7c1.2-0.7,2.3-1,3.2-1c1.7,0,2.9,0.5,3.6,1.5c0.7,1,1,2.6,1,4.7v7h-3.5v-6.9
		c0-1.1-0.1-1.9-0.4-2.5c-0.3-0.5-0.8-0.8-1.6-0.8c-0.7,0-1.4,0.1-2.1,0.4l-0.3,0.1v9.8C153.2,31.1,153.3,31.1,153.3,31.1z"/>
	<path class="st0" d="M167.2,31.1h-3.5v-13h3.5v0.7c1.2-0.7,2.3-1,3.2-1c1.7,0,2.9,0.5,3.6,1.5c0.7,1,1,2.6,1,4.7v7h-3.5v-6.9
		c0-1.1-0.1-1.9-0.4-2.5c-0.3-0.5-0.8-0.8-1.6-0.8c-0.7,0-1.4,0.1-2.1,0.4l-0.3,0.1v9.8C167.1,31.1,167.2,31.1,167.2,31.1z"/>
	<path class="st0" d="M181,27.8c0.4,0.4,1,0.5,1.8,0.5c1.6,0,3-0.1,4.3-0.2l0.7-0.1l0.1,2.6c-2,0.5-3.8,0.7-5.4,0.7
		c-2,0-3.4-0.5-4.3-1.6s-1.3-2.7-1.3-5.1c0-4.7,1.9-7,5.7-7s5.7,2,5.7,5.9l-0.3,2.4h-7.6C180.4,26.9,180.6,27.5,181,27.8z
		 M184.9,23.5c0-1-0.2-1.8-0.5-2.2c-0.3-0.4-0.9-0.6-1.7-0.6s-1.4,0.2-1.7,0.6s-0.5,1.1-0.5,2.1h4.4V23.5z"/>
	<path class="st0" d="M190.3,31.1v-13h3.5v1.4c1.5-0.9,2.8-1.4,4.2-1.7v3.5c-1.4,0.3-2.6,0.6-3.6,0.9l-0.5,0.2v8.7
		C193.9,31.1,190.3,31.1,190.3,31.1z"/>
	<path class="st0" d="M208.8,21.4c-2.1-0.3-3.7-0.4-4.5-0.4c-0.9,0-1.4,0.1-1.7,0.2c-0.3,0.2-0.4,0.4-0.4,0.7c0,0.3,0.2,0.6,0.5,0.7
		s1.2,0.3,2.6,0.6s2.4,0.7,3,1.2c0.6,0.6,0.9,1.5,0.9,2.8c0,2.8-1.7,4.2-5.2,4.2c-1.1,0-2.5-0.2-4.2-0.5l-0.8-0.2l0.1-2.9
		c2.1,0.3,3.6,0.4,4.5,0.4c0.8,0,1.4-0.1,1.7-0.2c0.3-0.2,0.5-0.4,0.5-0.7s-0.2-0.6-0.5-0.7c-0.3-0.2-1.2-0.3-2.5-0.6
		c-1.3-0.2-2.3-0.6-3-1.1s-1-1.5-1-2.9s0.5-2.4,1.4-3.1s2.1-1.1,3.6-1.1c1,0,2.4,0.2,4.2,0.5l0.9,0.2L208.8,21.4z"/>
</g>
</svg>
